<svg xmlns="http://www.w3.org/2000/svg" xmlns:xlink="http://www.w3.org/1999/xlink" width="50" zoomAndPan="magnify" viewBox="0 0 37.5 37.499999" height="50" preserveAspectRatio="xMidYMid meet" version="1.0"><defs><clipPath id="a38522eaf5"><path d="M 3.699219 3.699219 L 29 3.699219 L 29 15 L 3.699219 15 Z M 3.699219 3.699219 " clip-rule="nonzero"/></clipPath><clipPath id="abbbce4ac2"><path d="M 3.699219 10 L 20 10 L 20 21 L 3.699219 21 Z M 3.699219 10 " clip-rule="nonzero"/></clipPath><clipPath id="c37e6a7f6e"><path d="M 3.699219 16 L 16 16 L 16 26 L 3.699219 26 Z M 3.699219 16 " clip-rule="nonzero"/></clipPath><clipPath id="66ed536a29"><path d="M 3.699219 21 L 18 21 L 18 32 L 3.699219 32 Z M 3.699219 21 " clip-rule="nonzero"/></clipPath></defs><g clip-path="url(#a38522eaf5)"><path fill="#0097b2" d="M 15.960938 14.5625 C 18.46875 14.5625 20.792969 14.226562 22.734375 13.648438 L 23.644531 12.964844 C 24.164062 12.578125 24.8125 12.4375 25.433594 12.558594 C 27.148438 11.621094 28.179688 10.425781 28.179688 9.125 C 28.179688 6.121094 22.710938 3.6875 15.960938 3.6875 C 9.210938 3.6875 3.742188 6.121094 3.742188 9.125 C 3.742188 12.128906 9.210938 14.5625 15.960938 14.5625 Z M 15.960938 14.5625 " fill-opacity="1" fill-rule="nonzero"/></g><path fill="#0097b2" d="M 28.179688 10.617188 C 28.179688 11.574219 27.621094 12.46875 26.648438 13.25 C 27.027344 13.664062 27.261719 14.195312 27.261719 14.773438 L 27.261719 15.25 C 27.535156 15.3125 27.792969 15.410156 28.058594 15.496094 C 28.128906 15.261719 28.179688 15.019531 28.179688 14.773438 C 28.179688 13.671875 28.179688 12.519531 28.179688 10.617188 Z M 28.179688 10.617188 " fill-opacity="1" fill-rule="nonzero"/><g clip-path="url(#abbbce4ac2)"><path fill="#0097b2" d="M 15.960938 20.214844 C 16.089844 20.214844 16.214844 20.207031 16.339844 20.203125 C 16.859375 19.632812 17.648438 19.347656 18.433594 19.496094 L 18.699219 19.546875 C 18.398438 19.152344 18.222656 18.671875 18.222656 18.164062 C 18.222656 17.453125 18.554688 16.78125 19.125 16.355469 L 19.925781 15.757812 C 18.679688 15.945312 17.351562 16.054688 15.960938 16.054688 C 9.210938 16.054688 3.742188 13.621094 3.742188 10.617188 C 3.742188 11.871094 3.742188 12.707031 3.742188 14.773438 C 3.742188 17.777344 9.210938 20.214844 15.960938 20.214844 Z M 15.960938 20.214844 " fill-opacity="1" fill-rule="nonzero"/></g><g clip-path="url(#c37e6a7f6e)"><path fill="#0097b2" d="M 15.109375 25.84375 C 14.980469 24.433594 15.152344 23.03125 15.613281 21.695312 C 9.027344 21.613281 3.742188 19.21875 3.742188 16.265625 C 3.742188 17.519531 3.742188 18.359375 3.742188 20.425781 C 3.742188 23.300781 8.757812 25.648438 15.109375 25.84375 Z M 15.109375 25.84375 " fill-opacity="1" fill-rule="nonzero"/></g><g clip-path="url(#66ed536a29)"><path fill="#0097b2" d="M 15.339844 27.339844 C 8.882812 27.195312 3.742188 24.828125 3.742188 21.914062 C 3.742188 23.171875 3.742188 24.007812 3.742188 26.074219 C 3.742188 29.078125 9.210938 31.511719 15.960938 31.511719 C 16.472656 31.511719 16.972656 31.492188 17.46875 31.46875 C 16.464844 30.304688 15.726562 28.90625 15.339844 27.339844 Z M 15.339844 27.339844 " fill-opacity="1" fill-rule="nonzero"/></g><path fill="#0097b2" d="M 20.480469 18.164062 L 25 14.773438 L 25 21.554688 Z M 20.480469 18.164062 " fill-opacity="1" fill-rule="nonzero"/><path fill="#0097b2" d="M 32.59375 23.683594 C 31.898438 19.492188 27.933594 16.65625 23.742188 17.351562 C 23 17.472656 22.304688 17.703125 21.660156 18.011719 L 22.800781 19.679688 C 23.199219 19.511719 23.617188 19.375 24.066406 19.300781 C 27.179688 18.785156 30.125 20.894531 30.644531 24.007812 C 31.160156 27.128906 29.054688 30.070312 25.9375 30.589844 C 22.820312 31.105469 19.875 29 19.355469 25.882812 C 19.132812 24.523438 19.425781 23.214844 20.0625 22.105469 L 18.015625 21.714844 C 17.386719 23.070312 17.144531 24.621094 17.40625 26.207031 C 18.101562 30.398438 22.066406 33.234375 26.261719 32.539062 C 30.453125 31.84375 33.289062 27.878906 32.59375 23.683594 Z M 32.59375 23.683594 " fill-opacity="1" fill-rule="nonzero"/></svg>